<svg width="18" height="13" viewBox="0 0 18 13" fill="none" xmlns="http://www.w3.org/2000/svg">
<g id="courier chocofood icon">
<path id="Fill 1" fill-rule="evenodd" clip-rule="evenodd" d="M3.33438 11.6761C2.72419 11.6761 2.22956 11.1632 2.22956 10.5304C2.22956 9.89761 2.72419 9.38461 3.33438 9.38461C3.94457 9.38461 4.4392 9.89761 4.4392 10.5304C4.4392 11.1632 3.94457 11.6761 3.33438 11.6761ZM3.33833 8.73682C2.38536 8.73682 1.61279 9.53796 1.61279 10.5263C1.61279 11.5146 2.38536 12.3158 3.33833 12.3158C4.29134 12.3158 5.06391 11.5146 5.06391 10.5263C5.06391 9.53796 4.29134 8.73682 3.33833 8.73682Z" fill="white"/>
<path id="Fill 4" fill-rule="evenodd" clip-rule="evenodd" d="M15.2756 11.6199C14.6101 11.6199 14.0705 11.0619 14.0705 10.3735C14.0705 9.68503 14.6101 9.12692 15.2756 9.12692C15.9412 9.12692 16.4807 9.68503 16.4807 10.3735C16.4807 11.0619 15.9412 11.6199 15.2756 11.6199ZM16.1759 8.66786C16.2242 8.66029 16.2524 8.65583 16.2524 8.65583L16.9576 8.71982C16.9576 8.71982 16.4751 8.24633 16.2276 8.00319C15.9802 7.76004 15.176 7.18418 15.176 7.18418C15.176 7.18418 13.7532 5.02148 13.4686 4.66316C13.1841 4.30484 13.2954 4.16408 13.2459 3.92093C13.1964 3.67779 12.8871 3.31947 12.6397 2.99955C12.3922 2.67962 12.2438 2.73081 11.9097 2.66682C11.5757 2.60284 11.6746 2.06536 11.6746 2.06536C11.6746 2.06536 11.786 1.82222 11.8355 1.4767C11.885 1.13118 11.7736 0.926429 11.6746 0.772865C11.5757 0.6193 11.4767 0.696082 11.3777 0.772865C11.2787 0.849647 11.2169 1.0416 11.2045 1.4767C11.1921 1.9118 11.5509 2.11655 11.5757 2.21893C11.6004 2.3213 11.5509 2.64123 11.5509 2.64123L12.7139 7.35054L11.588 10.5626L8.97751 10.4218C8.97751 10.4218 8.09908 8.02878 8.0001 7.70885C7.90113 7.38893 8.02485 7.18418 8.1362 6.80026C8.24755 6.41635 8.34653 6.48034 8.50736 6.10923C8.6682 5.73811 8.37127 5.3542 8.37127 5.3542C8.37127 5.3542 7.38149 5.3414 6.89898 5.39259C6.41646 5.44378 5.9092 5.367 5.26585 5.3414C4.6225 5.31581 4.46166 5.20064 3.76881 5.09826C3.07597 4.99588 2.76667 5.17504 2.76667 5.17504L1.90061 6.1988L2.43262 7.36333L0.75 8.75821L2.82853 7.5297C2.82853 7.5297 3.45951 7.82403 3.69458 7.96479C3.92965 8.10556 4.12761 8.27192 4.4864 8.71982C4.8452 9.16772 6.09479 10.0123 6.09479 10.0123C6.09479 10.0123 7.65368 10.9593 8.49499 11.1896C9.3363 11.42 11.0313 11.228 11.5509 11.1896C12.0706 11.1513 12.0829 11.0105 12.2561 10.8185C12.4293 10.6266 13.1593 9.69239 13.4068 9.35967C13.5427 9.17688 13.7237 9.06001 13.9348 8.98733C13.5913 9.34007 13.3785 9.82876 13.3785 10.3689C13.3785 11.4442 14.2212 12.3158 15.2607 12.3158C16.3002 12.3158 17.1429 11.4442 17.1429 10.3689C17.1429 9.63747 16.7526 9.00054 16.1759 8.66786Z" fill="white"/>
</g>
</svg>
